<?xml version="1.0" encoding="UTF-8"?>
<!DOCTYPE svg PUBLIC "-//W3C//DTD SVG 1.1//EN"
    "http://www.w3.org/Graphics/SVG/1.1/DTD/svg11.dtd"><svg xmlns="http://www.w3.org/2000/svg" height="509.0909" stroke-opacity="1" viewBox="0 0 400 509" font-size="1" width="400.0000" xmlns:xlink="http://www.w3.org/1999/xlink" stroke="rgb(0,0,0)" version="1.1"><defs></defs><g stroke-linejoin="miter" stroke-opacity="1.0" fill-opacity="1.0" stroke="rgb(0,0,0)" stroke-width="1.8050434394168522" fill="rgb(255,255,255)" stroke-linecap="butt" stroke-miterlimit="10.0"><path d="M 400.0000,358.1818 v -352.7273 c 0.0000,-3.0125 -2.4421,-5.4545 -5.4545 -5.4545h -170.9091 c -3.0125,-0.0000 -5.4545,2.4421 -5.4545 5.4545v 352.7273 c -0.0000,3.0125 2.4421,5.4545 5.4545 5.4545h 170.9091 c 3.0125,0.0000 5.4545,-2.4421 5.4545 -5.4545Z"/></g><g stroke-linejoin="miter" stroke-opacity="1.0" fill-opacity="1.0" font-size="9.090909090909092px" stroke="rgb(0,0,0)" stroke-width="1.8050434394168522" fill="rgb(0,0,0)" stroke-linecap="butt" stroke-miterlimit="10.0"><text dominant-baseline="middle" transform="matrix(1.0000,0.0000,0.0000,1.0000,309.0909,181.8182)" stroke="none" text-anchor="middle">7) mix (1) and (6) (optional)
1) Get milk
6) Wait for 0h 5m 0s
5) pour (3) and (4)
3) Heat (2) until temperature 100
2) Get water
4) Get teabag
</text></g><g stroke-linejoin="miter" stroke-opacity="1.0" fill-opacity="1.0" stroke="rgb(0,0,0)" stroke-width="1.8050434394168522" fill="rgb(255,255,255)" stroke-linecap="butt" stroke-miterlimit="10.0"><path d="M 200.0000,400.0000 c 0.0000,-10.0415 -8.1403,-18.1818 -18.1818 -18.1818c -10.0415,-0.0000 -18.1818,8.1403 -18.1818 18.1818c -0.0000,10.0415 8.1403,18.1818 18.1818 18.1818c 10.0415,0.0000 18.1818,-8.1403 18.1818 -18.1818Z"/></g><g stroke-linejoin="miter" stroke-opacity="1.0" fill-opacity="1.0" font-size="12.727272727272728px" stroke="rgb(0,0,0)" stroke-width="1.8050434394168522" fill="rgb(0,0,0)" stroke-linecap="butt" stroke-miterlimit="10.0"><text dominant-baseline="middle" transform="matrix(1.0000,0.0000,0.0000,1.0000,181.8182,400.0000)" stroke="none" text-anchor="middle">4</text></g><g stroke-linejoin="miter" stroke-opacity="1.0" fill-opacity="1.0" stroke="rgb(0,0,0)" stroke-width="1.8050434394168522" fill="rgb(255,255,255)" stroke-linecap="butt" stroke-miterlimit="10.0"><path d="M 127.2727,472.7273 c 0.0000,-10.0415 -8.1403,-18.1818 -18.1818 -18.1818c -10.0415,-0.0000 -18.1818,8.1403 -18.1818 18.1818c -0.0000,10.0415 8.1403,18.1818 18.1818 18.1818c 10.0415,0.0000 18.1818,-8.1403 18.1818 -18.1818Z"/></g><g stroke-linejoin="miter" stroke-opacity="1.0" fill-opacity="1.0" font-size="12.727272727272728px" stroke="rgb(0,0,0)" stroke-width="1.8050434394168522" fill="rgb(0,0,0)" stroke-linecap="butt" stroke-miterlimit="10.0"><text dominant-baseline="middle" transform="matrix(1.0000,0.0000,0.0000,1.0000,109.0909,472.7273)" stroke="none" text-anchor="middle">2</text></g><g stroke-linejoin="miter" stroke-opacity="1.0" fill-opacity="1.0" stroke="rgb(0,0,0)" stroke-width="1.8050434394168522" fill="rgb(255,255,255)" stroke-linecap="butt" stroke-miterlimit="10.0"><path d="M 127.2727,400.0000 c 0.0000,-10.0415 -8.1403,-18.1818 -18.1818 -18.1818c -10.0415,-0.0000 -18.1818,8.1403 -18.1818 18.1818c -0.0000,10.0415 8.1403,18.1818 18.1818 18.1818c 10.0415,0.0000 18.1818,-8.1403 18.1818 -18.1818Z"/></g><g stroke-linejoin="miter" stroke-opacity="1.0" fill-opacity="1.0" font-size="12.727272727272728px" stroke="rgb(0,0,0)" stroke-width="1.8050434394168522" fill="rgb(0,0,0)" stroke-linecap="butt" stroke-miterlimit="10.0"><text dominant-baseline="middle" transform="matrix(1.0000,0.0000,0.0000,1.0000,109.0909,400.0000)" stroke="none" text-anchor="middle">3</text></g><g stroke-linejoin="miter" stroke-opacity="1.0" fill-opacity="0.0" stroke="rgb(0,0,0)" stroke-width="1.8050434394168522" fill="rgb(0,0,0)" stroke-linecap="butt" stroke-miterlimit="10.0"><path d="M 109.0909,418.1818 l 0.0000,20.5695 "/></g><g stroke-linejoin="miter" stroke-opacity="1.0" fill-opacity="1.0" stroke="rgb(0,0,0)" stroke-width="0.0" fill="rgb(0,0,0)" stroke-linecap="butt" stroke-miterlimit="10.0"></g><g stroke-linejoin="miter" stroke-opacity="1.0" fill-opacity="1.0" stroke="rgb(0,0,0)" stroke-width="0.0" fill="rgb(0,0,0)" stroke-linecap="butt" stroke-miterlimit="10.0"></g><g stroke-linejoin="miter" stroke-opacity="1.0" fill-opacity="1.0" stroke="rgb(0,0,0)" stroke-width="0.0" fill="rgb(0,0,0)" stroke-linecap="butt" stroke-miterlimit="10.0"><path d="M 109.0909,454.5455 l 6.0031,-18.4757 l -6.0031,3.1560 l -6.0031,-3.1560 Z"/></g><g stroke-linejoin="miter" stroke-opacity="1.0" fill-opacity="1.0" stroke="rgb(0,0,0)" stroke-width="0.0" fill="rgb(0,0,0)" stroke-linecap="butt" stroke-miterlimit="10.0"><path d="M 109.0909,439.2258 l -0.0000,-0.4745 l 0.9025,-0.0000 l -0.9025,0.4745 l -0.0000,-0.4745 l -0.9025,0.0000 Z"/></g><g stroke-linejoin="miter" stroke-opacity="1.0" fill-opacity="1.0" stroke="rgb(0,0,0)" stroke-width="1.8050434394168522" fill="rgb(255,255,255)" stroke-linecap="butt" stroke-miterlimit="10.0"><path d="M 163.6364,327.2727 c 0.0000,-10.0415 -8.1403,-18.1818 -18.1818 -18.1818c -10.0415,-0.0000 -18.1818,8.1403 -18.1818 18.1818c -0.0000,10.0415 8.1403,18.1818 18.1818 18.1818c 10.0415,0.0000 18.1818,-8.1403 18.1818 -18.1818Z"/></g><g stroke-linejoin="miter" stroke-opacity="1.0" fill-opacity="1.0" font-size="12.727272727272728px" stroke="rgb(0,0,0)" stroke-width="1.8050434394168522" fill="rgb(0,0,0)" stroke-linecap="butt" stroke-miterlimit="10.0"><text dominant-baseline="middle" transform="matrix(1.0000,0.0000,0.0000,1.0000,145.4545,327.2727)" stroke="none" text-anchor="middle">5</text></g><g stroke-linejoin="miter" stroke-opacity="1.0" fill-opacity="0.0" stroke="rgb(0,0,0)" stroke-width="1.8050434394168522" fill="rgb(0,0,0)" stroke-linecap="butt" stroke-miterlimit="10.0"><path d="M 153.5875,343.5386 l 13.0344,26.0688 "/></g><g stroke-linejoin="miter" stroke-opacity="1.0" fill-opacity="1.0" stroke="rgb(0,0,0)" stroke-width="0.0" fill="rgb(0,0,0)" stroke-linecap="butt" stroke-miterlimit="10.0"></g><g stroke-linejoin="miter" stroke-opacity="1.0" fill-opacity="1.0" stroke="rgb(0,0,0)" stroke-width="0.0" fill="rgb(0,0,0)" stroke-linecap="butt" stroke-miterlimit="10.0"></g><g stroke-linejoin="miter" stroke-opacity="1.0" fill-opacity="1.0" stroke="rgb(0,0,0)" stroke-width="0.0" fill="rgb(0,0,0)" stroke-linecap="butt" stroke-miterlimit="10.0"><path d="M 173.6852,383.7341 l -2.8932,-19.2098 l -3.9579,5.5075 l -6.7808,-0.1382 Z"/></g><g stroke-linejoin="miter" stroke-opacity="1.0" fill-opacity="1.0" stroke="rgb(0,0,0)" stroke-width="0.0" fill="rgb(0,0,0)" stroke-linecap="butt" stroke-miterlimit="10.0"><path d="M 166.8341,370.0318 l -0.2122,-0.4244 l 0.8072,-0.4036 l -0.5950,0.8280 l -0.2122,-0.4244 l -0.8072,0.4036 Z"/></g><g stroke-linejoin="miter" stroke-opacity="1.0" fill-opacity="0.0" stroke="rgb(0,0,0)" stroke-width="1.8050434394168522" fill="rgb(0,0,0)" stroke-linecap="butt" stroke-miterlimit="10.0"><path d="M 137.3216,343.5386 l -13.0344,26.0688 "/></g><g stroke-linejoin="miter" stroke-opacity="1.0" fill-opacity="1.0" stroke="rgb(0,0,0)" stroke-width="0.0" fill="rgb(0,0,0)" stroke-linecap="butt" stroke-miterlimit="10.0"></g><g stroke-linejoin="miter" stroke-opacity="1.0" fill-opacity="1.0" stroke="rgb(0,0,0)" stroke-width="0.0" fill="rgb(0,0,0)" stroke-linecap="butt" stroke-miterlimit="10.0"></g><g stroke-linejoin="miter" stroke-opacity="1.0" fill-opacity="1.0" stroke="rgb(0,0,0)" stroke-width="0.0" fill="rgb(0,0,0)" stroke-linecap="butt" stroke-miterlimit="10.0"><path d="M 117.2238,383.7341 l 13.6319,-13.8405 l -6.7808,0.1382 l -3.9579,-5.5075 Z"/></g><g stroke-linejoin="miter" stroke-opacity="1.0" fill-opacity="1.0" stroke="rgb(0,0,0)" stroke-width="0.0" fill="rgb(0,0,0)" stroke-linecap="butt" stroke-miterlimit="10.0"><path d="M 124.0750,370.0318 l 0.2122,-0.4244 l 0.8072,0.4036 l -1.0194,0.0208 l 0.2122,-0.4244 l -0.8072,-0.4036 Z"/></g><g stroke-linejoin="miter" stroke-opacity="1.0" fill-opacity="1.0" stroke="rgb(0,0,0)" stroke-width="1.8050434394168522" fill="rgb(255,255,255)" stroke-linecap="butt" stroke-miterlimit="10.0"><path d="M 163.6364,254.5455 c 0.0000,-10.0415 -8.1403,-18.1818 -18.1818 -18.1818c -10.0415,-0.0000 -18.1818,8.1403 -18.1818 18.1818c -0.0000,10.0415 8.1403,18.1818 18.1818 18.1818c 10.0415,0.0000 18.1818,-8.1403 18.1818 -18.1818Z"/></g><g stroke-linejoin="miter" stroke-opacity="1.0" fill-opacity="1.0" font-size="12.727272727272728px" stroke="rgb(0,0,0)" stroke-width="1.8050434394168522" fill="rgb(0,0,0)" stroke-linecap="butt" stroke-miterlimit="10.0"><text dominant-baseline="middle" transform="matrix(1.0000,0.0000,0.0000,1.0000,145.4545,254.5455)" stroke="none" text-anchor="middle">6</text></g><g stroke-linejoin="miter" stroke-opacity="1.0" fill-opacity="0.0" stroke="rgb(0,0,0)" stroke-width="1.8050434394168522" fill="rgb(0,0,0)" stroke-linecap="butt" stroke-miterlimit="10.0"><path d="M 145.4545,272.7273 l 0.0000,20.5695 "/></g><g stroke-linejoin="miter" stroke-opacity="1.0" fill-opacity="1.0" stroke="rgb(0,0,0)" stroke-width="0.0" fill="rgb(0,0,0)" stroke-linecap="butt" stroke-miterlimit="10.0"></g><g stroke-linejoin="miter" stroke-opacity="1.0" fill-opacity="1.0" stroke="rgb(0,0,0)" stroke-width="0.0" fill="rgb(0,0,0)" stroke-linecap="butt" stroke-miterlimit="10.0"></g><g stroke-linejoin="miter" stroke-opacity="1.0" fill-opacity="1.0" stroke="rgb(0,0,0)" stroke-width="0.0" fill="rgb(0,0,0)" stroke-linecap="butt" stroke-miterlimit="10.0"><path d="M 145.4545,309.0909 l 6.0031,-18.4757 l -6.0031,3.1560 l -6.0031,-3.1560 Z"/></g><g stroke-linejoin="miter" stroke-opacity="1.0" fill-opacity="1.0" stroke="rgb(0,0,0)" stroke-width="0.0" fill="rgb(0,0,0)" stroke-linecap="butt" stroke-miterlimit="10.0"><path d="M 145.4545,293.7713 l -0.0000,-0.4745 l 0.9025,-0.0000 l -0.9025,0.4745 l -0.0000,-0.4745 l -0.9025,0.0000 Z"/></g><g stroke-linejoin="miter" stroke-opacity="1.0" fill-opacity="1.0" stroke="rgb(0,0,0)" stroke-width="1.8050434394168522" fill="rgb(255,255,255)" stroke-linecap="butt" stroke-miterlimit="10.0"><path d="M 54.5455,254.5455 c 0.0000,-10.0415 -8.1403,-18.1818 -18.1818 -18.1818c -10.0415,-0.0000 -18.1818,8.1403 -18.1818 18.1818c -0.0000,10.0415 8.1403,18.1818 18.1818 18.1818c 10.0415,0.0000 18.1818,-8.1403 18.1818 -18.1818Z"/></g><g stroke-linejoin="miter" stroke-opacity="1.0" fill-opacity="1.0" font-size="12.727272727272728px" stroke="rgb(0,0,0)" stroke-width="1.8050434394168522" fill="rgb(0,0,0)" stroke-linecap="butt" stroke-miterlimit="10.0"><text dominant-baseline="middle" transform="matrix(1.0000,0.0000,0.0000,1.0000,36.3636,254.5455)" stroke="none" text-anchor="middle">1</text></g><g stroke-linejoin="miter" stroke-opacity="1.0" fill-opacity="1.0" stroke="rgb(0,0,0)" stroke-width="1.8050434394168522" fill="rgb(255,255,255)" stroke-linecap="butt" stroke-miterlimit="10.0"><path d="M 127.2727,181.8182 c 0.0000,-10.0415 -8.1403,-18.1818 -18.1818 -18.1818c -10.0415,-0.0000 -18.1818,8.1403 -18.1818 18.1818c -0.0000,10.0415 8.1403,18.1818 18.1818 18.1818c 10.0415,0.0000 18.1818,-8.1403 18.1818 -18.1818Z"/></g><g stroke-linejoin="miter" stroke-opacity="1.0" fill-opacity="1.0" font-size="12.727272727272728px" stroke="rgb(0,0,0)" stroke-width="1.8050434394168522" fill="rgb(0,0,0)" stroke-linecap="butt" stroke-miterlimit="10.0"><text dominant-baseline="middle" transform="matrix(1.0000,0.0000,0.0000,1.0000,109.0909,181.8182)" stroke="none" text-anchor="middle">7</text></g><g stroke-linejoin="miter" stroke-opacity="1.0" fill-opacity="0.0" stroke="rgb(0,0,0)" stroke-width="1.8050434394168522" fill="rgb(0,0,0)" stroke-linecap="butt" stroke-miterlimit="10.0"><path d="M 117.2238,198.0841 l 13.0344,26.0688 "/></g><g stroke-linejoin="miter" stroke-opacity="1.0" fill-opacity="1.0" stroke="rgb(0,0,0)" stroke-width="0.0" fill="rgb(0,0,0)" stroke-linecap="butt" stroke-miterlimit="10.0"></g><g stroke-linejoin="miter" stroke-opacity="1.0" fill-opacity="1.0" stroke="rgb(0,0,0)" stroke-width="0.0" fill="rgb(0,0,0)" stroke-linecap="butt" stroke-miterlimit="10.0"></g><g stroke-linejoin="miter" stroke-opacity="1.0" fill-opacity="1.0" stroke="rgb(0,0,0)" stroke-width="0.0" fill="rgb(0,0,0)" stroke-linecap="butt" stroke-miterlimit="10.0"><path d="M 137.3216,238.2796 l -2.8932,-19.2098 l -3.9579,5.5075 l -6.7808,-0.1382 Z"/></g><g stroke-linejoin="miter" stroke-opacity="1.0" fill-opacity="1.0" stroke="rgb(0,0,0)" stroke-width="0.0" fill="rgb(0,0,0)" stroke-linecap="butt" stroke-miterlimit="10.0"><path d="M 130.4705,224.5773 l -0.2122,-0.4244 l 0.8072,-0.4036 l -0.5950,0.8280 l -0.2122,-0.4244 l -0.8072,0.4036 Z"/></g><g stroke-linejoin="miter" stroke-opacity="1.0" fill-opacity="0.0" stroke="rgb(0,0,0)" stroke-width="1.8050434394168522" fill="rgb(0,0,0)" stroke-linecap="butt" stroke-miterlimit="10.0"><path d="M 96.2344,194.6747 l -35.8462,35.8462 "/></g><g stroke-linejoin="miter" stroke-opacity="1.0" fill-opacity="1.0" stroke="rgb(0,0,0)" stroke-width="0.0" fill="rgb(0,0,0)" stroke-linecap="butt" stroke-miterlimit="10.0"></g><g stroke-linejoin="miter" stroke-opacity="1.0" fill-opacity="1.0" stroke="rgb(0,0,0)" stroke-width="0.0" fill="rgb(0,0,0)" stroke-linecap="butt" stroke-miterlimit="10.0"></g><g stroke-linejoin="miter" stroke-opacity="1.0" fill-opacity="1.0" stroke="rgb(0,0,0)" stroke-width="0.0" fill="rgb(0,0,0)" stroke-linecap="butt" stroke-miterlimit="10.0"><path d="M 49.2201,241.6890 l 17.3091,-8.8194 l -6.4765,-2.0132 l -2.0132,-6.4765 Z"/></g><g stroke-linejoin="miter" stroke-opacity="1.0" fill-opacity="1.0" stroke="rgb(0,0,0)" stroke-width="0.0" fill="rgb(0,0,0)" stroke-linecap="butt" stroke-miterlimit="10.0"><path d="M 60.0527,230.8563 l 0.3355,-0.3355 l 0.6382,0.6382 l -0.9737,-0.3027 l 0.3355,-0.3355 l -0.6382,-0.6382 Z"/></g></svg>